<?xml version="1.0" encoding="UTF-8"?>
<!DOCTYPE svg PUBLIC "-//W3C//DTD SVG 1.1//EN" "http://www.w3.org/Graphics/SVG/1.1/DTD/svg11.dtd">
<svg xmlns="http://www.w3.org/2000/svg" version="1.1" width="1080px" height="1080px" style="shape-rendering:geometricPrecision; text-rendering:geometricPrecision; image-rendering:optimizeQuality; fill-rule:evenodd; clip-rule:evenodd" xmlns:xlink="http://www.w3.org/1999/xlink">
<g><path style="opacity:1" fill="#fefefe" d="M -0.5,-0.5 C 359.5,-0.5 719.5,-0.5 1079.5,-0.5C 1079.5,359.5 1079.5,719.5 1079.5,1079.5C 719.5,1079.5 359.5,1079.5 -0.5,1079.5C -0.5,719.5 -0.5,359.5 -0.5,-0.5 Z"/></g>
<g><path style="opacity:1" fill="#040404" d="M 855.5,447.5 C 864.508,451.462 869.675,458.462 871,468.5C 871.333,499.833 871.667,531.167 872,562.5C 874.014,567.947 877.514,568.947 882.5,565.5C 884.063,566.945 885.396,568.611 886.5,570.5C 876.909,579.299 866.909,587.633 856.5,595.5C 853.849,593.35 851.349,591.017 849,588.5C 845.801,582.068 843.301,575.401 841.5,568.5C 832.167,577.5 822.833,586.5 813.5,595.5C 792.529,585.355 783.363,568.688 786,545.5C 794.901,517.43 813.734,500.43 842.5,494.5C 843.01,488.928 842.177,483.595 840,478.5C 835.692,475.852 831.526,476.185 827.5,479.5C 825.888,478.451 824.888,476.951 824.5,475C 825.776,472.719 827.443,470.719 829.5,469C 838.648,462.346 847.315,455.18 855.5,447.5 Z"/></g>
<g><path style="opacity:1" fill="#030303" d="M 566.5,477.5 C 566.5,483.167 566.5,488.833 566.5,494.5C 575.167,494.5 583.833,494.5 592.5,494.5C 592.5,496.167 592.5,497.833 592.5,499.5C 587.958,504.729 583.291,509.896 578.5,515C 574.848,515.499 571.182,515.665 567.5,515.5C 567.333,530.504 567.5,545.504 568,560.5C 569.135,563.859 571.468,565.192 575,564.5C 579.082,564.292 582.748,562.959 586,560.5C 587.944,561.688 589.444,563.354 590.5,565.5C 577.833,575.5 565.167,585.5 552.5,595.5C 544.407,589.985 539.907,582.318 539,572.5C 538.5,553.503 538.333,534.503 538.5,515.5C 530.833,515.5 523.167,515.5 515.5,515.5C 515.337,513.143 515.503,510.81 516,508.5C 521.373,503.623 526.873,498.956 532.5,494.5C 534.5,494.5 536.5,494.5 538.5,494.5C 538.784,492.585 538.451,490.919 537.5,489.5C 537.146,483.644 534.146,481.477 528.5,483C 526.579,483.36 524.912,484.194 523.5,485.5C 521.937,484.055 520.604,482.389 519.5,480.5C 530.274,470.94 541.274,461.606 552.5,452.5C 561.598,458.364 566.265,466.697 566.5,477.5 Z"/></g>
<g><path style="opacity:1" fill="#020202" d="M 213.5,539.5 C 202.833,539.5 192.167,539.5 181.5,539.5C 181.205,541.735 181.539,543.735 182.5,545.5C 182.089,552.66 182.922,559.66 185,566.5C 187.957,567.814 190.79,567.48 193.5,565.5C 195.543,566.579 196.876,568.246 197.5,570.5C 187.985,579.179 178.152,587.513 168,595.5C 159.206,589.165 154.539,580.498 154,569.5C 153.667,545.5 153.333,521.5 153,497.5C 151.542,491.941 148.042,490.108 142.5,492C 138.63,495.538 136.296,494.538 135.5,489C 145.999,479.67 156.666,470.503 167.5,461.5C 173.219,464.885 177.552,469.552 180.5,475.5C 185.98,471.188 191.313,466.688 196.5,462C 207.426,462.237 218.259,463.404 229,465.5C 234.264,465.767 239.264,464.767 244,462.5C 245.622,462.954 246.788,463.954 247.5,465.5C 237.337,474.159 227.004,482.659 216.5,491C 211.833,491.667 207.167,491.667 202.5,491C 196.035,488.601 189.369,487.101 182.5,486.5C 182.019,497.161 181.686,507.828 181.5,518.5C 197.167,518.5 212.833,518.5 228.5,518.5C 228.664,521.187 228.497,523.854 228,526.5C 223.594,531.411 218.76,535.745 213.5,539.5 Z"/></g>
<g><path style="opacity:1" fill="#656565" d="M 537.5,489.5 C 538.451,490.919 538.784,492.585 538.5,494.5C 536.5,494.5 534.5,494.5 532.5,494.5C 533.919,493.549 535.585,493.216 537.5,493.5C 537.5,492.167 537.5,490.833 537.5,489.5 Z"/></g>
<g><path style="opacity:1" fill="#7a7a7a" d="M 566.5,477.5 C 567.488,482.64 567.821,487.974 567.5,493.5C 576.167,493.5 584.833,493.5 593.5,493.5C 593.795,495.735 593.461,497.735 592.5,499.5C 592.5,497.833 592.5,496.167 592.5,494.5C 583.833,494.5 575.167,494.5 566.5,494.5C 566.5,488.833 566.5,483.167 566.5,477.5 Z"/></g>
<g><path style="opacity:1" fill="#030303" d="M 265.5,494.5 C 272.883,497.893 277.883,503.56 280.5,511.5C 286.319,506.182 291.985,500.682 297.5,495C 300.594,494.348 303.594,494.682 306.5,496C 314.561,501.061 320.895,507.727 325.5,516C 318.294,523.039 310.627,529.539 302.5,535.5C 299.053,530.88 295.386,526.38 291.5,522C 287.845,519.665 284.679,520.165 282,523.5C 281.333,536.833 281.333,550.167 282,563.5C 282.465,564.931 283.299,566.097 284.5,567C 287.758,567.616 290.758,567.283 293.5,566C 294.516,567.677 295.516,569.343 296.5,571C 286.978,579.52 277.145,587.686 267,595.5C 259.877,590.699 255.544,584.032 254,575.5C 252.747,559.878 252.08,544.212 252,528.5C 250.855,525.523 248.688,523.856 245.5,523.5C 242.949,524.359 240.449,525.359 238,526.5C 236.462,525.295 235.295,523.795 234.5,522C 244.806,512.84 255.139,503.673 265.5,494.5 Z"/></g>
<g><path style="opacity:1" fill="#030303" d="M 364.5,494.5 C 393.841,496.345 408.008,512.012 407,541.5C 404.915,549.67 401.248,557.004 396,563.5C 384.167,573.333 372.333,583.167 360.5,593C 356.775,595.95 352.775,596.284 348.5,594C 333.136,585.803 324.302,572.97 322,555.5C 320.052,544.968 322.052,535.301 328,526.5C 340.064,515.596 352.23,504.929 364.5,494.5 Z"/></g>
<g><path style="opacity:1" fill="#020202" d="M 437.5,494.5 C 443.095,496.927 447.262,500.927 450,506.5C 451.969,514.022 452.969,521.689 453,529.5C 459.685,518.478 467.518,508.311 476.5,499C 491.355,490.009 500.189,494.175 503,511.5C 503.333,527.833 503.667,544.167 504,560.5C 505.021,567.738 508.688,569.405 515,565.5C 516.878,567.043 518.378,568.876 519.5,571C 509.542,578.623 499.875,586.623 490.5,595C 486.886,593.422 483.719,590.922 481,587.5C 479.138,583.581 477.471,579.581 476,575.5C 475.667,561.833 475.333,548.167 475,534.5C 472.986,527.956 469.486,526.956 464.5,531.5C 458.355,538.786 454.688,547.12 453.5,556.5C 453.32,560.034 453.987,563.368 455.5,566.5C 458.527,567.857 461.36,567.524 464,565.5C 465.878,567.043 467.378,568.876 468.5,571C 458.355,578.978 448.355,587.144 438.5,595.5C 430.172,589.71 425.672,581.71 425,571.5C 424.949,557.099 424.282,542.765 423,528.5C 422.135,525.797 420.301,524.464 417.5,524.5C 414.634,524.931 411.968,525.931 409.5,527.5C 405.205,523.554 405.538,520.054 410.5,517C 419.94,509.958 428.94,502.458 437.5,494.5 Z"/></g>
<g><path style="opacity:1" fill="#030303" d="M 633.5,494.5 C 640.722,493.594 647.389,495.094 653.5,499C 660.452,504.946 666.285,511.78 671,519.5C 681.114,511.724 690.947,503.557 700.5,495C 701.5,494.333 702.5,494.333 703.5,495C 713.683,504.198 718.183,515.698 717,529.5C 722.822,518.692 729.988,508.858 738.5,500C 753.14,489.671 762.307,493.171 766,510.5C 767.231,528.133 767.898,545.8 768,563.5C 768.465,564.931 769.299,566.097 770.5,567C 773.672,567.425 776.672,567.091 779.5,566C 780.945,567.71 781.778,569.544 782,571.5C 772.333,579.5 762.667,587.5 753,595.5C 744.464,589.437 739.798,581.104 739,570.5C 738.667,557.833 738.333,545.167 738,532.5C 734.528,527.291 730.862,527.291 727,532.5C 721.418,539.825 717.918,547.992 716.5,557C 715.639,566.338 719.306,569.171 727.5,565.5C 729.063,566.945 730.396,568.611 731.5,570.5C 722.132,579.367 712.299,587.7 702,595.5C 695.168,590.513 690.834,583.846 689,575.5C 687.749,560.212 687.082,544.879 687,529.5C 686.439,526.001 684.439,524.334 681,524.5C 678.019,524.657 675.352,525.657 673,527.5C 672.586,527.043 672.086,526.709 671.5,526.5C 670.3,527.531 668.966,528.365 667.5,529C 655.939,538.607 644.606,548.44 633.5,558.5C 639.385,565.117 646.718,567.283 655.5,565C 658.952,563.774 662.285,562.274 665.5,560.5C 666.892,561.605 668.059,562.939 669,564.5C 669.667,565.167 669.667,565.833 669,566.5C 656.41,575.879 643.91,585.379 631.5,595C 627.486,595.505 623.819,594.505 620.5,592C 602.661,577.482 594.161,558.649 595,535.5C 596.261,528.908 599.261,523.241 604,518.5C 612.712,508.924 622.545,500.924 633.5,494.5 Z"/></g>
<g><path style="opacity:1" fill="#f8f8f8" d="M 622.5,514.5 C 627.017,513.659 630.683,514.992 633.5,518.5C 638.11,523.381 641.443,529.048 643.5,535.5C 639.201,540.404 634.368,544.738 629,548.5C 621.902,540.207 618.568,530.54 619,519.5C 619.997,517.677 621.164,516.01 622.5,514.5 Z"/></g>
<g><path style="opacity:1" fill="#fafafa" d="M 821.5,514.5 C 829.461,513.046 836.294,515.046 842,520.5C 842.667,532.5 842.667,544.5 842,556.5C 837.072,560.716 832.239,565.05 827.5,569.5C 816.376,560.166 810.376,548.166 809.5,533.5C 809.737,524.673 813.737,518.34 821.5,514.5 Z"/></g>
<g><path style="opacity:1" fill="#f9f9f9" d="M 351.5,516.5 C 360.4,517.202 366.9,521.536 371,529.5C 377.623,542.282 379.123,555.615 375.5,569.5C 371.526,570.541 367.859,569.707 364.5,567C 349.542,552.668 345.208,535.834 351.5,516.5 Z"/></g>
<g><path style="opacity:1" fill="#b4b4b4" d="M 213.5,539.5 C 203.347,540.494 193.014,540.828 182.5,540.5C 182.5,542.167 182.5,543.833 182.5,545.5C 181.539,543.735 181.205,541.735 181.5,539.5C 192.167,539.5 202.833,539.5 213.5,539.5 Z"/></g>
</svg>
